<?xml version="1.0" standalone="no"?>
<!DOCTYPE svg PUBLIC "-//W3C//DTD SVG 20010904//EN"
 "http://www.w3.org/TR/2001/REC-SVG-20010904/DTD/svg10.dtd">
<svg version="1.0" xmlns="http://www.w3.org/2000/svg"
 width="4192.000000pt" height="4192.000000pt" viewBox="0 0 4192.000000 4192.000000"
 preserveAspectRatio="xMidYMid meet">
<metadata>
Created by potrace 1.14, written by Peter Selinger 2001-2017
</metadata>
<g transform="translate(0.000000,4192.000000) scale(0.100000,-0.100000)"
fill="#000000" stroke="none">
<path d="M3964 24992 c-30 -3 -35 -11 -137 -223 -59 -121 -107 -224 -107 -229
0 -6 -4 -10 -10 -10 -5 0 -10 -5 -10 -10 0 -6 -31 -75 -70 -154 -38 -79 -70
-149 -70 -155 0 -6 -3 -11 -7 -11 -5 0 -19 -27 -33 -60 -14 -33 -28 -60 -32
-60 -5 0 -7 -3 -6 -7 1 -5 -10 -32 -25 -60 -15 -29 -24 -53 -20 -53 5 0 3 -4
-3 -8 -7 -4 -26 -38 -43 -77 -17 -38 -36 -77 -41 -85 -5 -8 -19 -35 -31 -60
-62 -130 -180 -372 -285 -585 -65 -132 -119 -242 -119 -245 -1 -3 -46 -95
-100 -205 -54 -110 -98 -203 -97 -207 1 -5 -2 -8 -8 -8 -5 0 -10 -5 -10 -11 0
-6 -38 -89 -85 -183 -47 -95 -85 -177 -85 -183 0 -6 -7 -16 -15 -23 -9 -7 -13
-15 -11 -18 3 -3 -3 -17 -14 -32 -11 -16 -20 -32 -20 -37 0 -4 -52 -114 -116
-243 -64 -129 -116 -239 -117 -245 -1 -5 -5 -12 -8 -15 -3 -3 -33 -61 -67
-130 -81 -168 -233 -481 -384 -790 -69 -140 -165 -336 -213 -435 -91 -187
-225 -461 -400 -820 -99 -203 -237 -488 -287 -590 -13 -27 -29 -59 -36 -70 -6
-11 -32 -65 -58 -120 -26 -55 -50 -102 -53 -105 -3 -3 -7 -9 -8 -15 -1 -5 -61
-131 -134 -280 -73 -148 -134 -272 -134 -275 0 -3 -7 -16 -15 -30 -8 -14 -15
-27 -15 -30 0 -3 -33 -71 -73 -151 -40 -80 -72 -151 -72 -157 0 -6 -3 -12 -7
-14 -5 -1 -24 -37 -43 -78 -19 -41 -38 -76 -42 -78 -5 -2 -8 -9 -8 -15 0 -6
-33 -79 -74 -162 -40 -82 -77 -160 -80 -172 -4 -13 -11 -23 -16 -23 -5 0 -7
-6 -5 -12 4 -10 156 -13 718 -12 l712 0 80 160 c44 88 105 212 135 275 30 63
59 117 65 121 5 4 7 8 3 8 -4 0 10 35 31 78 21 42 67 136 101 207 34 72 107
222 162 335 55 113 116 239 135 280 19 41 39 82 44 90 5 8 13 24 18 35 5 11
41 85 79 165 39 80 69 147 69 150 -1 3 8 18 21 34 12 16 22 33 22 39 0 5 41
92 90 194 50 101 90 188 90 193 0 6 4 10 10 10 5 0 9 3 8 8 -1 4 28 69 65 146
37 76 67 142 67 147 0 5 5 9 10 9 6 0 10 7 10 15 0 20 29 78 44 87 6 4 7 8 3
8 -4 0 8 30 27 68 47 91 140 285 140 294 1 3 5 10 9 14 7 7 48 91 51 104 1 3
28 59 60 125 32 66 95 194 139 285 105 219 256 530 320 660 28 58 52 107 52
110 4 17 81 166 90 172 5 4 6 8 2 8 -4 0 10 35 32 78 38 74 194 396 212 437 5
11 13 27 18 35 5 8 30 60 56 115 26 55 73 152 103 215 31 63 55 117 53 119 -1
2 1 7 6 10 8 6 47 79 49 90 0 3 40 87 88 186 48 99 99 205 114 235 14 30 31
58 37 62 5 4 7 8 3 8 -4 0 9 32 28 71 19 39 39 81 45 92 5 12 13 29 18 37 20
30 111 228 111 239 0 6 5 11 10 11 6 0 10 6 10 13 0 6 11 33 25 60 14 26 22
47 18 47 -5 0 -3 4 3 8 6 4 34 57 64 117 29 61 86 180 128 265 41 85 105 218
142 295 37 77 102 212 145 299 43 88 78 165 78 170 0 6 8 19 17 28 15 16 19
10 65 -85 27 -56 95 -198 152 -315 57 -116 103 -215 103 -218 0 -3 9 -19 21
-35 11 -16 18 -29 15 -29 -2 0 22 -53 53 -117 117 -236 186 -378 186 -383 1
-3 52 -108 114 -235 62 -126 113 -234 114 -240 1 -5 4 -12 7 -15 6 -5 84 -162
85 -170 0 -3 23 -50 50 -105 27 -55 48 -102 47 -104 -2 -2 0 -7 5 -10 7 -5 33
-54 38 -71 1 -3 31 -65 68 -139 37 -74 67 -141 67 -148 0 -7 4 -13 8 -13 5 0
15 -18 22 -40 7 -22 17 -40 22 -40 4 0 7 -3 6 -7 -1 -5 25 -64 59 -133 33 -69
99 -204 146 -300 46 -96 122 -251 168 -345 45 -93 83 -172 84 -175 0 -3 20
-44 44 -92 23 -48 43 -91 43 -95 0 -4 9 -20 19 -35 10 -14 19 -29 19 -32 0 -6
42 -93 226 -471 37 -77 67 -143 66 -147 -1 -3 5 -12 13 -18 8 -7 15 -16 15
-21 0 -5 22 -55 50 -113 28 -58 50 -110 50 -115 0 -6 5 -11 10 -11 6 0 10 -4
10 -9 0 -5 42 -96 94 -203 163 -338 206 -428 206 -438 0 -6 5 -10 10 -10 6 0
10 -4 10 -9 0 -5 39 -90 86 -188 48 -98 117 -241 154 -318 37 -77 109 -225
160 -330 51 -104 121 -248 155 -320 34 -71 89 -184 121 -250 32 -66 59 -122
59 -125 1 -3 50 -104 109 -225 60 -121 136 -278 171 -350 74 -155 194 -402
243 -502 19 -40 40 -73 46 -74 15 -1 2592 -1 2641 0 l40 1 44 93 c24 50 111
229 193 396 81 167 148 307 148 312 0 5 5 9 10 9 6 0 9 3 8 8 -2 4 31 75 72
157 40 83 74 153 74 156 2 12 41 84 49 87 4 2 7 8 7 14 0 6 38 89 85 184 46
96 84 175 83 177 -1 1 17 36 40 79 23 42 42 83 42 91 0 9 3 17 8 19 4 2 17 23
29 48 39 81 263 541 365 750 55 113 114 234 131 270 18 36 35 67 40 68 4 2 7
9 7 16 0 7 34 80 75 164 41 84 75 156 75 162 0 5 5 10 10 10 6 0 9 3 8 8 -1 4
31 75 72 157 41 83 73 153 72 158 -1 4 2 7 8 7 6 0 9 3 8 8 -1 4 35 82 80 173
45 92 82 172 82 178 0 6 5 11 10 11 6 0 10 4 10 9 0 9 197 422 222 466 7 11
25 47 41 80 16 33 48 98 70 145 23 47 41 88 39 93 -1 4 3 7 9 7 5 0 8 4 5 9
-4 5 -3 11 1 13 5 1 24 37 43 78 19 41 39 78 43 81 5 3 8 9 8 13 -1 3 6 20 14
36 9 17 12 30 8 30 -5 0 -3 4 3 8 12 8 84 153 84 170 0 6 3 12 8 14 9 4 62
111 62 126 0 7 5 12 10 12 6 0 10 3 9 8 -2 15 14 52 22 52 5 0 9 5 9 11 0 11
28 69 206 435 35 71 64 135 64 142 0 7 4 12 9 12 5 0 13 9 16 21 4 11 67 144
141 295 74 151 134 279 134 284 0 6 5 10 10 10 6 0 9 3 8 8 -1 4 20 52 47 107
27 55 49 103 49 107 1 3 5 10 9 14 7 7 48 89 52 104 0 3 60 126 133 274 73
148 132 272 132 277 0 5 5 9 12 9 6 0 9 2 6 5 -3 3 39 96 93 205 55 110 99
206 99 212 0 13 39 -31 40 -44 0 -6 210 -440 311 -642 27 -54 49 -105 49 -112
0 -8 3 -14 8 -14 4 0 14 -15 21 -32 8 -18 74 -154 146 -303 73 -148 181 -369
240 -490 59 -121 133 -274 166 -340 32 -66 59 -126 59 -133 0 -7 5 -12 10 -12
6 0 10 -4 10 -10 0 -8 84 -182 385 -795 149 -304 186 -384 185 -391 -1 -4 2
-10 7 -13 5 -3 24 -37 42 -76 35 -73 200 -412 342 -700 46 -93 84 -173 84
-177 0 -4 6 -13 13 -20 6 -6 12 -16 12 -21 0 -13 83 -181 93 -188 5 -3 9 -10
9 -15 0 -10 50 -117 164 -349 43 -88 79 -162 79 -165 0 -3 5 -12 10 -20 5 -8
32 -62 60 -120 28 -58 55 -112 60 -120 5 -8 10 -17 10 -20 0 -3 29 -63 64
-135 35 -71 109 -222 164 -335 54 -113 131 -269 169 -347 38 -78 69 -145 68
-149 -1 -4 2 -10 7 -13 10 -8 93 -177 93 -191 0 -5 5 -10 10 -10 6 0 10 -6 10
-13 0 -18 24 -67 33 -67 4 0 7 -6 7 -12 0 -7 24 -62 54 -123 30 -60 66 -135
80 -165 15 -30 31 -62 36 -70 4 -8 31 -62 58 -120 28 -58 114 -235 192 -395
78 -159 162 -332 187 -382 24 -51 49 -96 55 -99 11 -7 2617 -9 2621 -3 5 8
136 276 183 374 26 55 54 108 62 118 8 9 12 17 9 17 -3 0 15 42 40 93 114 230
257 522 258 527 1 5 82 171 293 600 64 129 116 237 117 240 4 19 110 226 119
232 6 4 8 8 4 8 -4 0 13 40 37 90 25 49 45 94 45 99 0 5 3 11 8 13 10 4 72
135 72 153 0 8 4 15 8 15 4 0 21 28 36 63 37 81 59 127 74 152 28 49 142 292
142 303 0 7 3 12 8 12 8 0 32 49 32 67 0 7 4 13 10 13 5 0 9 3 8 8 -1 7 32 78
51 112 5 8 42 83 82 165 39 83 108 224 152 315 45 91 80 168 79 173 -1 4 3 7
8 7 6 0 10 4 10 9 0 5 58 128 128 273 71 144 135 278 143 296 8 17 17 32 21
32 5 0 8 6 8 14 0 8 20 53 44 100 25 47 42 86 38 86 -4 0 -2 4 3 8 6 4 26 41
45 82 19 41 39 78 43 81 5 3 8 9 8 13 -2 8 127 273 489 1011 83 171 159 327
167 348 8 20 20 37 26 37 6 0 8 2 5 5 -3 4 21 60 53 126 33 66 59 124 59 129
0 6 4 10 10 10 5 0 9 3 8 8 -2 4 34 81 79 172 166 338 257 525 258 530 1 3 61
127 134 275 73 149 141 287 151 308 22 45 16 52 85 -95 23 -48 49 -98 59 -112
9 -14 14 -26 12 -26 -2 0 32 -73 76 -162 44 -90 120 -244 168 -343 48 -99 138
-283 200 -410 62 -126 153 -313 201 -415 49 -102 94 -193 99 -202 22 -40 33
-62 138 -278 60 -124 131 -270 158 -325 27 -55 49 -103 49 -107 0 -4 6 -13 13
-20 6 -6 12 -15 12 -19 0 -4 41 -91 91 -193 49 -102 89 -188 89 -192 -1 -4 2
-10 7 -13 13 -10 33 -49 33 -66 0 -8 5 -15 10 -15 6 0 10 -4 10 -10 0 -5 57
-126 127 -267 69 -142 127 -260 128 -263 0 -3 31 -68 69 -145 362 -739 464
-948 620 -1270 59 -121 114 -233 123 -250 26 -47 29 -54 78 -158 26 -55 84
-175 131 -269 46 -93 84 -176 84 -183 0 -7 3 -15 8 -17 7 -3 25 -38 98 -193
21 -44 41 -81 46 -83 4 -2 8 -9 8 -15 0 -11 15 -41 227 -475 63 -128 118 -243
123 -255 6 -12 14 -29 19 -37 6 -8 42 -82 82 -165 39 -82 111 -230 159 -327
49 -98 86 -178 83 -178 -2 0 5 -13 16 -29 11 -15 18 -31 14 -35 -3 -3 -1 -6 5
-6 7 0 12 -4 12 -10 0 -8 127 -277 136 -289 3 -3 2600 -4 2675 -2 10 1 45 62
101 179 48 97 86 181 86 186 0 5 4 12 9 15 7 5 32 52 38 71 7 21 21 49 36 70
9 14 17 27 16 30 0 3 17 41 38 85 21 44 38 83 37 88 -1 4 2 7 6 7 5 0 15 18
22 40 7 22 17 40 22 40 4 0 8 9 8 20 0 11 5 20 10 20 6 0 9 3 8 8 -1 4 28 69
65 146 37 76 67 143 67 147 0 5 5 9 10 9 6 0 10 6 10 13 0 8 29 73 65 145 36
72 65 135 65 141 0 6 5 11 10 11 6 0 9 3 8 8 -1 4 21 56 50 115 29 60 52 113
52 118 0 5 5 9 10 9 6 0 9 3 8 8 -1 7 21 55 217 457 45 94 110 226 143 295 33
69 87 181 121 249 33 69 61 130 61 137 0 7 3 14 8 16 4 2 15 19 24 38 9 19 66
138 127 263 61 125 114 239 117 252 3 14 10 25 14 25 5 0 16 21 26 48 10 26
22 54 29 62 6 8 16 26 22 40 6 14 37 79 69 145 32 66 59 122 59 125 1 3 38 81
83 173 45 92 82 172 82 177 0 6 5 10 10 10 6 0 10 4 10 10 0 10 46 108 199
423 50 103 91 192 91 197 0 6 5 10 10 10 6 0 10 5 10 11 0 6 25 61 55 124 30
62 55 115 55 118 0 4 14 30 31 59 17 29 30 53 28 53 -2 0 24 56 57 125 34 69
94 193 134 275 40 83 112 231 160 330 48 99 114 236 148 305 33 69 98 204 145
300 193 398 243 501 302 625 35 72 110 227 167 345 58 118 130 267 160 330
l56 115 88 -180 c48 -99 88 -182 89 -185 1 -3 44 -93 97 -200 127 -260 152
-314 149 -319 -1 -2 1 -7 6 -10 4 -3 16 -22 25 -41 9 -19 64 -133 122 -253 58
-120 106 -222 106 -227 0 -5 4 -10 9 -12 5 -1 11 -12 13 -23 1 -11 5 -22 8
-25 9 -9 70 -136 70 -146 0 -6 6 -16 12 -23 7 -6 13 -15 13 -19 0 -4 27 -61
59 -127 175 -358 230 -470 231 -475 1 -3 35 -75 77 -160 79 -161 175 -361 297
-612 39 -81 71 -152 71 -158 0 -5 5 -10 10 -10 6 0 10 -5 10 -11 0 -6 27 -66
60 -133 33 -68 60 -128 60 -134 0 -7 5 -12 10 -12 6 0 10 -4 10 -10 0 -9 37
-86 230 -485 45 -93 118 -244 162 -335 44 -91 108 -221 141 -290 34 -69 62
-127 63 -130 1 -5 68 -144 83 -170 4 -8 35 -71 67 -140 32 -69 64 -128 69
-132 6 -4 7 -8 3 -8 -4 0 17 -48 47 -107 29 -60 87 -178 128 -263 130 -271
217 -450 309 -640 148 -302 218 -450 218 -458 0 -5 6 -14 13 -21 6 -6 12 -15
12 -19 1 -7 68 -148 166 -344 32 -65 55 -118 51 -118 -4 0 -2 -4 3 -8 11 -8
14 -14 159 -316 53 -109 96 -202 96 -207 0 -5 5 -9 10 -9 6 0 10 -6 10 -13 0
-7 23 -58 50 -114 28 -56 50 -106 50 -112 0 -6 4 -11 9 -11 5 0 11 -10 14 -22
l6 -23 716 1 c394 1 717 3 719 5 2 2 -44 101 -102 219 -258 527 -342 701 -342
710 0 6 -5 10 -10 10 -6 0 -9 3 -9 8 3 12 -25 72 -33 72 -4 0 -8 6 -8 13 0 7
-45 104 -100 216 -55 111 -100 206 -100 211 0 6 -5 10 -10 10 -6 0 -9 3 -8 8
2 4 -20 52 -47 107 -27 55 -50 102 -50 105 0 3 -35 74 -77 158 -42 83 -74 152
-70 152 4 0 2 4 -3 8 -6 4 -23 32 -37 62 -14 30 -60 126 -102 212 -43 87 -76
160 -76 164 1 4 -2 10 -7 13 -8 5 -54 93 -58 111 -1 5 -74 154 -299 612 -64
131 -116 241 -116 246 0 5 -7 15 -15 22 -8 6 -14 15 -13 18 1 4 -26 63 -61
132 -34 69 -62 126 -62 127 0 2 -60 126 -134 278 -74 151 -135 279 -135 285 0
5 -4 10 -8 10 -6 0 -30 46 -36 70 -1 3 -30 64 -65 135 -186 378 -311 637 -311
644 0 4 -6 13 -12 20 -7 6 -13 15 -13 19 -1 4 -37 81 -82 172 -44 91 -126 260
-182 375 -56 116 -114 235 -129 265 -15 30 -33 63 -41 73 -8 9 -11 17 -6 17 4
0 0 11 -9 25 -9 14 -13 25 -9 25 5 0 3 4 -3 8 -6 4 -23 34 -39 67 -15 33 -63
131 -106 219 -44 87 -79 164 -79 171 0 8 -4 15 -8 17 -10 4 -76 140 -74 151 1
4 -2 7 -8 7 -6 0 -9 3 -8 8 1 4 -40 93 -91 197 -115 234 -352 717 -451 923
l-74 152 -40 1 c-23 0 -640 1 -1373 1 -1192 0 -1334 -1 -1347 -15 -9 -9 -16
-19 -16 -22 0 -8 -96 -213 -111 -235 -5 -8 -13 -24 -18 -35 -5 -11 -61 -127
-125 -258 -64 -131 -116 -242 -116 -247 0 -6 -4 -10 -9 -10 -5 0 -12 -13 -16
-30 -4 -16 -11 -30 -16 -30 -5 0 -8 -3 -7 -7 2 -5 -35 -84 -81 -178 -47 -93
-85 -172 -86 -175 -1 -3 -36 -76 -78 -163 -42 -86 -77 -160 -78 -165 -1 -4
-10 -19 -20 -33 -10 -14 -16 -28 -13 -31 2 -3 -2 -11 -11 -18 -8 -7 -15 -17
-15 -23 0 -6 -42 -97 -94 -202 -51 -104 -104 -212 -117 -240 -12 -27 -28 -53
-33 -57 -6 -4 -8 -8 -5 -8 4 0 -15 -44 -42 -97 -27 -54 -49 -102 -49 -108 0
-6 -6 -17 -13 -24 -6 -6 -12 -15 -13 -19 0 -4 -51 -110 -113 -237 -63 -126
-155 -315 -206 -420 -51 -104 -143 -293 -205 -420 -232 -475 -290 -595 -290
-602 0 -3 -7 -14 -16 -24 -8 -9 -17 -23 -18 -31 -4 -20 -40 -93 -48 -96 -5 -2
-8 -9 -8 -16 0 -6 -36 -85 -80 -174 -44 -88 -80 -166 -80 -172 0 -5 -5 -10
-12 -10 -6 0 -9 -3 -5 -6 3 -3 -14 -44 -39 -90 -24 -46 -42 -84 -38 -84 3 0
-4 -13 -15 -29 -12 -16 -21 -31 -21 -34 0 -3 -52 -111 -115 -241 -63 -130
-115 -241 -115 -246 0 -6 -4 -10 -10 -10 -5 0 -10 -5 -10 -10 0 -6 -48 -108
-106 -228 -59 -119 -151 -309 -206 -422 -55 -113 -150 -306 -211 -430 -61
-124 -111 -227 -112 -230 0 -3 -37 -79 -82 -170 -196 -398 -323 -662 -323
-671 0 -5 -4 -9 -10 -9 -5 0 -10 -6 -10 -12 -1 -7 -34 -80 -75 -163 l-73 -150
-122 250 c-67 138 -161 329 -208 425 -47 96 -86 177 -87 180 -1 3 -59 122
-129 265 -208 422 -236 481 -236 493 0 7 -4 12 -9 12 -5 0 -13 10 -17 23 -12
37 -118 251 -129 259 -5 4 -7 8 -2 8 4 0 -17 48 -47 108 -74 146 -270 546
-271 552 -1 3 -30 64 -65 135 -35 72 -62 132 -61 134 2 2 -1 7 -6 10 -5 3 -21
31 -35 61 -14 30 -54 112 -88 182 -33 70 -61 130 -60 133 0 3 -4 11 -10 18
-12 14 -129 252 -137 280 -3 9 -9 17 -14 17 -5 0 -9 7 -9 15 0 8 -22 59 -50
112 -27 54 -110 224 -185 378 -76 154 -162 332 -193 395 -31 63 -57 118 -57
122 0 4 -6 13 -12 20 -7 6 -13 16 -13 21 0 14 -74 161 -82 165 -5 2 -8 8 -8
14 0 6 -32 76 -72 157 -40 80 -73 148 -73 151 -3 9 -50 105 -60 120 -5 8 -10
17 -10 20 0 5 -11 28 -210 435 -62 127 -128 262 -146 300 -19 39 -37 72 -41
73 -5 2 -8 9 -8 15 0 6 -25 63 -56 126 -31 64 -107 220 -169 346 -62 127 -146
300 -188 385 -41 85 -116 237 -165 338 -50 100 -88 182 -85 182 3 0 0 8 -8 18
-13 15 -51 87 -54 102 0 3 -9 21 -20 40 -11 19 -20 37 -20 40 -1 6 -107 224
-111 229 -6 7 -2772 4 -2783 -3 -12 -8 -51 -88 -51 -105 0 -5 -3 -11 -7 -13
-9 -3 -7 -1 -124 -243 -45 -93 -106 -222 -137 -285 -31 -63 -55 -118 -54 -122
1 -3 -5 -12 -13 -18 -8 -7 -15 -16 -15 -21 0 -5 -33 -77 -74 -161 -40 -84
-113 -234 -160 -333 -48 -99 -103 -210 -121 -247 -19 -38 -31 -68 -27 -68 4 0
3 -4 -3 -8 -5 -4 -24 -36 -42 -72 -110 -228 -153 -318 -153 -325 0 -5 -7 -16
-16 -26 -8 -9 -17 -23 -18 -31 -1 -7 -37 -85 -80 -173 -43 -88 -106 -216 -139
-285 -34 -69 -60 -128 -59 -132 1 -5 -2 -8 -7 -8 -5 0 -12 -10 -16 -22 -4 -13
-8 -25 -9 -28 -1 -3 -37 -77 -80 -165 -43 -88 -112 -230 -153 -315 -41 -85
-90 -185 -109 -222 -18 -38 -30 -68 -26 -68 4 0 2 -4 -4 -8 -5 -4 -18 -25 -29
-47 -10 -22 -44 -93 -76 -158 -33 -66 -59 -125 -59 -132 0 -7 -3 -15 -7 -17
-5 -1 -22 -32 -40 -68 -17 -36 -65 -135 -106 -220 -41 -85 -118 -244 -171
-353 -53 -109 -96 -202 -96 -208 0 -5 -4 -9 -10 -9 -5 0 -9 -3 -8 -7 2 -5 -9
-33 -24 -63 -87 -179 -237 -489 -278 -575 -26 -55 -103 -212 -171 -350 -67
-137 -123 -252 -123 -255 -1 -5 -46 -98 -164 -340 -37 -74 -67 -141 -68 -148
-2 -8 -10 -22 -18 -31 -9 -10 -16 -21 -16 -24 0 -4 -30 -69 -67 -144 -37 -76
-66 -141 -65 -145 1 -5 -3 -8 -8 -8 -6 0 -10 -5 -10 -11 0 -6 -28 -68 -62
-137 -34 -70 -63 -129 -63 -132 -1 -3 -37 -77 -80 -165 -44 -88 -80 -162 -80
-165 -1 -3 -40 -84 -87 -180 -47 -96 -93 -192 -103 -212 -9 -21 -20 -38 -24
-38 -8 0 -18 19 -132 255 -159 330 -343 711 -442 915 -28 58 -52 107 -52 110
-1 3 -48 100 -104 215 -57 116 -130 266 -163 335 -33 69 -79 164 -104 213 -24
48 -41 87 -36 87 4 0 2 4 -3 8 -6 4 -23 34 -39 67 -16 33 -67 138 -113 233
-45 95 -83 176 -83 181 0 5 -7 14 -15 21 -8 6 -14 15 -13 18 1 4 -26 66 -61
137 -34 72 -90 186 -123 255 -33 69 -64 132 -69 140 -5 8 -13 24 -18 36 -11
26 -128 267 -209 432 -33 67 -57 122 -54 122 4 0 3 4 -3 8 -5 4 -18 23 -27 42
-9 19 -48 100 -86 180 -39 80 -110 228 -160 330 -49 102 -92 195 -96 208 -4
12 -12 22 -17 22 -5 0 -9 6 -9 12 0 7 -24 62 -54 123 -122 249 -146 300 -146
312 0 7 -3 13 -8 13 -4 0 -13 15 -20 33 -7 17 -18 39 -23 47 -5 8 -12 22 -15
30 -11 26 -114 239 -185 384 -38 76 -69 145 -69 152 0 8 -4 14 -9 14 -5 0 -13
10 -17 23 -3 12 -44 99 -89 192 -189 390 -243 503 -266 553 -13 28 -27 52 -31
52 -5 0 -8 7 -8 16 0 9 -11 37 -25 63 -28 53 -212 432 -274 566 -23 50 -46 98
-51 108 -6 9 -14 25 -20 35 -26 48 -128 262 -124 262 2 0 -10 23 -26 50 -17
28 -30 53 -30 56 0 14 -82 174 -91 180 -15 9 -2763 9 -2778 0 -6 -4 -35 -58
-65 -119 -163 -338 -199 -413 -208 -418 -5 -3 -10 -10 -10 -15 -1 -16 -15 -46
-134 -289 -65 -132 -119 -242 -120 -245 -1 -3 -5 -15 -9 -27 -4 -13 -10 -23
-14 -23 -4 0 -13 -17 -20 -37 -8 -21 -20 -46 -29 -55 -8 -10 -13 -18 -9 -18 3
0 -30 -71 -73 -157 -124 -253 -198 -407 -198 -417 0 -5 -4 -12 -9 -15 -8 -5
-45 -76 -48 -91 -1 -3 -55 -115 -122 -250 -104 -211 -174 -355 -326 -670 -18
-36 -35 -66 -39 -68 -5 -2 -8 -9 -8 -16 0 -7 -29 -71 -65 -144 -36 -72 -65
-136 -65 -142 0 -5 -4 -10 -10 -10 -5 0 -10 -5 -10 -10 0 -6 -31 -76 -70 -155
-38 -79 -70 -148 -70 -153 0 -5 -6 -15 -14 -21 -8 -7 -18 -26 -21 -42 -4 -16
-11 -29 -16 -29 -5 0 -8 -3 -7 -7 2 -11 -55 -127 -64 -131 -5 -2 -8 -9 -8 -16
0 -7 -16 -44 -35 -83 -19 -39 -35 -76 -35 -82 0 -6 -4 -11 -10 -11 -5 0 -10
-5 -10 -10 0 -6 -25 -60 -55 -120 -30 -61 -51 -110 -47 -110 4 0 2 -4 -4 -8
-6 -4 -32 -50 -57 -102 -24 -52 -104 -216 -177 -365 -169 -345 -237 -488 -238
-499 0 -5 -4 -12 -9 -15 -9 -7 -76 -144 -87 -178 -4 -13 -12 -23 -17 -23 -5 0
-9 -5 -9 -12 0 -7 -33 -80 -74 -163 -172 -350 -236 -484 -236 -493 0 -6 -3
-12 -7 -14 -5 -1 -18 -23 -30 -48 -12 -25 -56 -115 -97 -201 -42 -86 -76 -161
-76 -168 0 -6 -4 -11 -10 -11 -5 0 -10 -9 -10 -20 0 -11 -4 -20 -10 -20 -5 0
-10 -5 -10 -11 0 -5 -44 -99 -97 -207 -53 -108 -97 -199 -98 -202 0 -3 -60
-126 -133 -273 -73 -148 -132 -273 -132 -278 0 -5 -5 -9 -12 -9 -6 0 -9 -2 -6
-5 3 -3 -29 -74 -70 -158 -42 -84 -75 -155 -74 -159 1 -5 -1 -8 -5 -8 -5 0
-51 89 -104 198 -53 108 -142 292 -199 407 -56 116 -147 302 -202 415 -54 113
-124 253 -153 313 -30 59 -51 107 -47 107 4 0 2 4 -3 8 -6 4 -20 27 -32 52
-12 25 -76 156 -142 292 -67 135 -121 250 -121 255 0 5 -6 15 -12 22 -7 6 -13
15 -14 19 0 7 -81 173 -272 562 -48 96 -87 177 -88 180 -3 17 -19 47 -32 63
-8 9 -12 17 -8 17 4 0 -1 12 -12 28 -11 15 -20 30 -20 35 -1 17 -36 87 -44 87
-4 0 -8 6 -8 14 0 8 -18 50 -39 93 -124 246 -211 427 -211 439 0 8 -4 14 -9
14 -5 0 -15 17 -22 38 -6 20 -20 49 -30 64 -11 14 -19 29 -19 33 0 3 -43 95
-96 203 -53 108 -138 283 -189 387 -51 105 -146 300 -212 435 -66 135 -159
324 -206 420 -102 209 -316 647 -398 816 -32 66 -59 125 -59 131 0 6 -3 13 -7
15 -5 2 -24 37 -43 78 -19 41 -38 77 -43 78 -4 2 -5 8 -1 13 3 5 0 9 -5 9 -6
0 -10 3 -9 8 2 6 -34 83 -229 479 -36 73 -64 135 -63 139 1 4 -2 10 -7 13 -11
9 -33 49 -33 62 0 6 -10 25 -22 42 -13 18 -22 34 -21 37 0 3 -48 106 -109 230
-61 124 -141 289 -180 368 -63 130 -71 142 -96 143 -102 2 -2673 3 -2698 1z"/>
</g>
</svg>
