<svg version="1.1" id="Слой_1" xmlns="http://www.w3.org/2000/svg" xmlns:xlink="http://www.w3.org/1999/xlink" x="0px" y="0px"
	 viewBox="0 0 131 26" style="enable-background:new 0 0 131 26;" xml:space="preserve">
<style type="text/css">
	.st0{fill:#EFD1E8;}
	.st1{fill:#DEA3D1;}
</style>
<g>
	<g>
		<polygon class="st0" points="69.6,25.6 65.2,25.6 77.4,0.4 81.9,0.4 		"/>
	</g>
	<g>
		<polygon class="st0" points="93.9,25.6 98.4,25.6 86.1,0.4 81.6,0.4 		"/>
	</g>
	<g>
		<polygon class="st0" points="102.3,25.6 97.8,25.6 110.1,0.4 114.5,0.4 		"/>
	</g>
	<g>
		<polygon class="st0" points="126.5,25.6 131,25.6 118.7,0.4 114.3,0.4 		"/>
	</g>
</g>
<g>
	<g>
		<polygon class="st1" points="4.5,25.6 0,25.6 12.3,0.4 16.7,0.4 		"/>
	</g>
	<g>
		<polygon class="st1" points="28.7,25.6 33.2,25.6 20.9,0.4 16.5,0.4 		"/>
	</g>
	<g>
		<polygon class="st1" points="37.1,25.6 32.6,25.6 44.9,0.4 49.4,0.4 		"/>
	</g>
	<g>
		<polygon class="st1" points="61.4,25.6 65.8,25.6 53.6,0.4 49.1,0.4 		"/>
	</g>
</g>
</svg>
